<mxfile host="app.diagrams.net" agent="Mozilla/5.0 (Windows NT 10.0; Win64; x64) AppleWebKit/537.36 (KHTML, like Gecko) Chrome/134.0.0.0 Safari/537.36" version="26.1.1">
  <diagram name="PÃ¡gina-1" id="fhk1l--ZHoZrmgL3ooCt">
    <mxGraphModel dx="2261" dy="780" grid="1" gridSize="10" guides="1" tooltips="1" connect="1" arrows="1" fold="1" page="1" pageScale="1" pageWidth="827" pageHeight="1169" math="0" shadow="0">
      <root>
        <mxCell id="0" />
        <mxCell id="1" parent="0" />
        <mxCell id="CWlIQ0puvkanfJ4ACryU-1" value="" style="rounded=1;whiteSpace=wrap;html=1;" parent="1" vertex="1">
          <mxGeometry x="740" y="180" width="160" height="380" as="geometry" />
        </mxCell>
        <mxCell id="CWlIQ0puvkanfJ4ACryU-43" style="edgeStyle=orthogonalEdgeStyle;rounded=0;orthogonalLoop=1;jettySize=auto;html=1;" parent="1" source="CWlIQ0puvkanfJ4ACryU-8" edge="1">
          <mxGeometry relative="1" as="geometry">
            <mxPoint x="498.25" y="460" as="targetPoint" />
          </mxGeometry>
        </mxCell>
        <mxCell id="CWlIQ0puvkanfJ4ACryU-8" value="" style="outlineConnect=0;dashed=0;verticalLabelPosition=bottom;verticalAlign=top;align=center;html=1;shape=mxgraph.aws3.lambda;fillColor=#F58534;gradientColor=none;" parent="1" vertex="1">
          <mxGeometry x="460" y="329.5" width="76.5" height="93" as="geometry" />
        </mxCell>
        <mxCell id="CWlIQ0puvkanfJ4ACryU-9" style="edgeStyle=orthogonalEdgeStyle;rounded=0;orthogonalLoop=1;jettySize=auto;html=1;entryX=0;entryY=0.5;entryDx=0;entryDy=0;entryPerimeter=0;" parent="1" target="CWlIQ0puvkanfJ4ACryU-8" edge="1">
          <mxGeometry relative="1" as="geometry">
            <mxPoint x="399" y="376" as="sourcePoint" />
          </mxGeometry>
        </mxCell>
        <mxCell id="CWlIQ0puvkanfJ4ACryU-10" style="edgeStyle=orthogonalEdgeStyle;rounded=0;orthogonalLoop=1;jettySize=auto;html=1;" parent="1" source="CWlIQ0puvkanfJ4ACryU-11" target="CWlIQ0puvkanfJ4ACryU-13" edge="1">
          <mxGeometry relative="1" as="geometry" />
        </mxCell>
        <mxCell id="CWlIQ0puvkanfJ4ACryU-11" value="Queue Trigger (SQS)" style="outlineConnect=0;dashed=0;verticalLabelPosition=bottom;verticalAlign=top;align=center;html=1;shape=mxgraph.aws3.sqs;fillColor=#D9A741;gradientColor=none;" parent="1" vertex="1">
          <mxGeometry x="600" y="329.5" width="76.5" height="93" as="geometry" />
        </mxCell>
        <mxCell id="CWlIQ0puvkanfJ4ACryU-12" style="edgeStyle=orthogonalEdgeStyle;rounded=0;orthogonalLoop=1;jettySize=auto;html=1;entryX=0;entryY=0.5;entryDx=0;entryDy=0;entryPerimeter=0;" parent="1" source="CWlIQ0puvkanfJ4ACryU-8" target="CWlIQ0puvkanfJ4ACryU-11" edge="1">
          <mxGeometry relative="1" as="geometry" />
        </mxCell>
        <mxCell id="CWlIQ0puvkanfJ4ACryU-39" style="edgeStyle=orthogonalEdgeStyle;rounded=0;orthogonalLoop=1;jettySize=auto;html=1;" parent="1" source="CWlIQ0puvkanfJ4ACryU-13" edge="1">
          <mxGeometry relative="1" as="geometry">
            <mxPoint x="530" y="211" as="targetPoint" />
          </mxGeometry>
        </mxCell>
        <mxCell id="CWlIQ0puvkanfJ4ACryU-13" value="" style="sketch=0;points=[[0,0,0],[0.25,0,0],[0.5,0,0],[0.75,0,0],[1,0,0],[0,1,0],[0.25,1,0],[0.5,1,0],[0.75,1,0],[1,1,0],[0,0.25,0],[0,0.5,0],[0,0.75,0],[1,0.25,0],[1,0.5,0],[1,0.75,0]];outlineConnect=0;fontColor=#232F3E;fillColor=#C925D1;strokeColor=#ffffff;dashed=0;verticalLabelPosition=bottom;verticalAlign=top;align=center;html=1;fontSize=12;fontStyle=0;aspect=fixed;shape=mxgraph.aws4.resourceIcon;resIcon=mxgraph.aws4.dynamodb;" parent="1" vertex="1">
          <mxGeometry x="600" y="172" width="78" height="78" as="geometry" />
        </mxCell>
        <mxCell id="CWlIQ0puvkanfJ4ACryU-14" style="edgeStyle=orthogonalEdgeStyle;rounded=0;orthogonalLoop=1;jettySize=auto;html=1;entryX=0.5;entryY=0;entryDx=0;entryDy=0;entryPerimeter=0;" parent="1" source="CWlIQ0puvkanfJ4ACryU-13" target="CWlIQ0puvkanfJ4ACryU-11" edge="1">
          <mxGeometry relative="1" as="geometry" />
        </mxCell>
        <mxCell id="CWlIQ0puvkanfJ4ACryU-15" value="" style="shape=image;html=1;verticalAlign=top;verticalLabelPosition=bottom;labelBackgroundColor=#ffffff;imageAspect=0;aspect=fixed;image=https://cdn2.iconfinder.com/data/icons/social-media-2189/48/29-Slack-128.png" parent="1" vertex="1">
          <mxGeometry x="794.39" y="299.26" width="56.24" height="56.24" as="geometry" />
        </mxCell>
        <mxCell id="CWlIQ0puvkanfJ4ACryU-16" value="" style="sketch=0;points=[[0,0,0],[0.25,0,0],[0.5,0,0],[0.75,0,0],[1,0,0],[0,1,0],[0.25,1,0],[0.5,1,0],[0.75,1,0],[1,1,0],[0,0.25,0],[0,0.5,0],[0,0.75,0],[1,0.25,0],[1,0.5,0],[1,0.75,0]];outlineConnect=0;fontColor=#232F3E;fillColor=#DD344C;strokeColor=#ffffff;dashed=0;verticalLabelPosition=bottom;verticalAlign=top;align=center;html=1;fontSize=12;fontStyle=0;aspect=fixed;shape=mxgraph.aws4.resourceIcon;resIcon=mxgraph.aws4.simple_email_service;" parent="1" vertex="1">
          <mxGeometry x="791.26" y="371.5" width="61" height="61" as="geometry" />
        </mxCell>
        <mxCell id="CWlIQ0puvkanfJ4ACryU-17" style="edgeStyle=orthogonalEdgeStyle;rounded=0;orthogonalLoop=1;jettySize=auto;html=1;entryX=0;entryY=0.516;entryDx=0;entryDy=0;entryPerimeter=0;" parent="1" source="CWlIQ0puvkanfJ4ACryU-11" target="CWlIQ0puvkanfJ4ACryU-1" edge="1">
          <mxGeometry relative="1" as="geometry" />
        </mxCell>
        <mxCell id="CWlIQ0puvkanfJ4ACryU-18" value="" style="shape=image;html=1;verticalAlign=top;verticalLabelPosition=bottom;labelBackgroundColor=#ffffff;imageAspect=0;aspect=fixed;image=https://cdn3.iconfinder.com/data/icons/2018-social-media-logotypes/1000/2018_social_media_popular_app_logo-whatsapp-128.png" parent="1" vertex="1">
          <mxGeometry x="794.39" y="226" width="53.11" height="53.11" as="geometry" />
        </mxCell>
        <mxCell id="CWlIQ0puvkanfJ4ACryU-19" value="" style="shape=image;verticalLabelPosition=bottom;labelBackgroundColor=default;verticalAlign=top;aspect=fixed;imageAspect=0;image=https://cdn.pixabay.com/photo/2023/05/08/00/43/chatgpt-7977357_1280.png;" parent="1" vertex="1">
          <mxGeometry x="791.27" y="451.45" width="62.49" height="62.55" as="geometry" />
        </mxCell>
        <mxCell id="CWlIQ0puvkanfJ4ACryU-20" value="Integrations" style="text;html=1;align=center;verticalAlign=middle;whiteSpace=wrap;rounded=0;" parent="1" vertex="1">
          <mxGeometry x="793.76" y="570" width="60" height="30" as="geometry" />
        </mxCell>
        <mxCell id="CWlIQ0puvkanfJ4ACryU-21" value="NoSQL Database (DynamoDB)" style="text;html=1;align=center;verticalAlign=middle;whiteSpace=wrap;rounded=0;" parent="1" vertex="1">
          <mxGeometry x="603.13" y="130" width="71.75" height="20" as="geometry" />
        </mxCell>
        <mxCell id="CWlIQ0puvkanfJ4ACryU-22" value="API Gateway" style="shape=image;verticalLabelPosition=bottom;labelBackgroundColor=default;verticalAlign=top;aspect=fixed;imageAspect=0;image=https://cdn.worldvectorlogo.com/logos/aws-api-gateway.svg;" parent="1" vertex="1">
          <mxGeometry x="320" y="327.99999999999994" width="78.2" height="94.69" as="geometry" />
        </mxCell>
        <mxCell id="CWlIQ0puvkanfJ4ACryU-25" value="Non-Tech User" style="sketch=0;outlineConnect=0;fontColor=#232F3E;gradientColor=none;fillColor=#232F3D;strokeColor=none;dashed=0;verticalLabelPosition=bottom;verticalAlign=top;align=center;html=1;fontSize=12;fontStyle=0;aspect=fixed;pointerEvents=1;shape=mxgraph.aws4.user;" parent="1" vertex="1">
          <mxGeometry x="-41" y="253" width="78" height="78" as="geometry" />
        </mxCell>
        <mxCell id="CWlIQ0puvkanfJ4ACryU-32" style="edgeStyle=orthogonalEdgeStyle;rounded=0;orthogonalLoop=1;jettySize=auto;html=1;" parent="1" source="CWlIQ0puvkanfJ4ACryU-28" edge="1">
          <mxGeometry relative="1" as="geometry">
            <mxPoint x="169" y="377" as="targetPoint" />
            <Array as="points">
              <mxPoint x="119" y="462" />
              <mxPoint x="119" y="377" />
            </Array>
          </mxGeometry>
        </mxCell>
        <mxCell id="CWlIQ0puvkanfJ4ACryU-28" value="Dev User" style="sketch=0;outlineConnect=0;fontColor=#232F3E;gradientColor=none;fillColor=#232F3D;strokeColor=none;dashed=0;verticalLabelPosition=bottom;verticalAlign=top;align=center;html=1;fontSize=12;fontStyle=0;aspect=fixed;pointerEvents=1;shape=mxgraph.aws4.user;" parent="1" vertex="1">
          <mxGeometry x="-41" y="423" width="78" height="78" as="geometry" />
        </mxCell>
        <mxCell id="CWlIQ0puvkanfJ4ACryU-33" style="edgeStyle=orthogonalEdgeStyle;rounded=0;orthogonalLoop=1;jettySize=auto;html=1;entryX=0;entryY=0.5;entryDx=0;entryDy=0;" parent="1" source="CWlIQ0puvkanfJ4ACryU-29" target="CWlIQ0puvkanfJ4ACryU-22" edge="1">
          <mxGeometry relative="1" as="geometry" />
        </mxCell>
        <mxCell id="CWlIQ0puvkanfJ4ACryU-29" value="" style="points=[];aspect=fixed;html=1;align=center;shadow=0;dashed=0;fillColor=#FF6A00;strokeColor=none;shape=mxgraph.alibaba_cloud.waf_web_application_firewall;" parent="1" vertex="1">
          <mxGeometry x="169" y="335" width="91.68" height="80.5" as="geometry" />
        </mxCell>
        <mxCell id="CWlIQ0puvkanfJ4ACryU-31" style="edgeStyle=orthogonalEdgeStyle;rounded=0;orthogonalLoop=1;jettySize=auto;html=1;" parent="1" source="CWlIQ0puvkanfJ4ACryU-25" edge="1">
          <mxGeometry relative="1" as="geometry">
            <mxPoint x="169" y="377" as="targetPoint" />
            <Array as="points">
              <mxPoint x="119" y="292" />
              <mxPoint x="119" y="377" />
            </Array>
          </mxGeometry>
        </mxCell>
        <mxCell id="CWlIQ0puvkanfJ4ACryU-34" value="" style="points=[];aspect=fixed;html=1;align=center;shadow=0;dashed=0;fillColor=#FF6A00;strokeColor=none;shape=mxgraph.alibaba_cloud.dbs_database_backup;" parent="1" vertex="1">
          <mxGeometry x="460" y="179.05" width="68.39999999999999" height="63.9" as="geometry" />
        </mxCell>
        <mxCell id="CWlIQ0puvkanfJ4ACryU-36" value="AWS Backup" style="text;html=1;align=center;verticalAlign=middle;whiteSpace=wrap;rounded=0;" parent="1" vertex="1">
          <mxGeometry x="459.65" y="146" width="71.75" height="20" as="geometry" />
        </mxCell>
        <mxCell id="CWlIQ0puvkanfJ4ACryU-40" value="&lt;div&gt;Firewall (AWS WAF)&lt;/div&gt;" style="text;html=1;align=center;verticalAlign=middle;whiteSpace=wrap;rounded=0;" parent="1" vertex="1">
          <mxGeometry x="178.95999999999998" y="431.45" width="71.75" height="20" as="geometry" />
        </mxCell>
        <mxCell id="CWlIQ0puvkanfJ4ACryU-42" value="&lt;span style=&quot;text-wrap-mode: nowrap;&quot;&gt;Serveless&lt;/span&gt;&lt;div style=&quot;text-wrap-mode: nowrap;&quot;&gt;Backend&lt;/div&gt;" style="text;html=1;align=center;verticalAlign=middle;whiteSpace=wrap;rounded=0;" parent="1" vertex="1">
          <mxGeometry x="464.75" y="299.26" width="71.75" height="20" as="geometry" />
        </mxCell>
        <mxCell id="CWlIQ0puvkanfJ4ACryU-44" value="" style="outlineConnect=0;dashed=0;verticalLabelPosition=bottom;verticalAlign=top;align=center;html=1;shape=mxgraph.aws3.instance_with_cloudwatch;fillColor=#F58534;gradientColor=none;" parent="1" vertex="1">
          <mxGeometry x="460.63" y="460" width="80" height="80" as="geometry" />
        </mxCell>
        <mxCell id="CWlIQ0puvkanfJ4ACryU-45" value="&lt;span style=&quot;text-wrap-mode: nowrap;&quot;&gt;AWS CloudWatch&lt;/span&gt;" style="text;html=1;align=center;verticalAlign=middle;whiteSpace=wrap;rounded=0;" parent="1" vertex="1">
          <mxGeometry x="370" y="481" width="71.75" height="20" as="geometry" />
        </mxCell>
        <mxCell id="CWlIQ0puvkanfJ4ACryU-47" value="GitHub Actions" style="dashed=0;outlineConnect=0;html=1;align=center;labelPosition=center;verticalLabelPosition=bottom;verticalAlign=top;shape=mxgraph.weblogos.github" parent="1" vertex="1">
          <mxGeometry x="321.59999999999997" y="204.11" width="75" height="75" as="geometry" />
        </mxCell>
        <mxCell id="CWlIQ0puvkanfJ4ACryU-49" style="edgeStyle=orthogonalEdgeStyle;rounded=0;orthogonalLoop=1;jettySize=auto;html=1;entryX=0;entryY=0.21;entryDx=0;entryDy=0;entryPerimeter=0;" parent="1" source="CWlIQ0puvkanfJ4ACryU-47" target="CWlIQ0puvkanfJ4ACryU-8" edge="1">
          <mxGeometry relative="1" as="geometry" />
        </mxCell>
      </root>
    </mxGraphModel>
  </diagram>
</mxfile>
